<svg xmlns="http://www.w3.org/2000/svg" width="27.041" height="25.34" viewBox="0 0 27.041 25.34">
  <g id="Group_8321" data-name="Group 8321" transform="translate(0.6)">
    <g id="cart" transform="translate(0 7)">
      <path id="Path_25918" data-name="Path 25918" d="M59,16.89H48.011a.724.724,0,0,1-.456-.162.692.692,0,0,1-.245-.409L44.938,3.571a.692.692,0,0,0-.245-.409A.723.723,0,0,0,44.233,3H42.626" transform="translate(-42.626 -3)" fill="none" stroke="#333" stroke-linecap="round" stroke-linejoin="round" stroke-width="1.2"/>
      <path id="Path_25919" data-name="Path 25919" d="M48.1,20.073a1.736,1.736,0,1,0-1.736-1.736A1.736,1.736,0,0,0,48.1,20.073Z" transform="translate(-41.579 -2.333)" fill="none" stroke="#333" stroke-linecap="round" stroke-linejoin="round" stroke-width="1.2"/>
      <path id="Path_25920" data-name="Path 25920" d="M58.3,20.073a1.736,1.736,0,1,0-1.736-1.736A1.736,1.736,0,0,0,58.3,20.073Z" transform="translate(-41.923 -2.333)" fill="none" stroke="#333" stroke-linecap="round" stroke-linejoin="round" stroke-width="1.2"/>
      <path id="Path_25921" data-name="Path 25921" d="M45.346,6.4H60.875a.727.727,0,0,1,.3.066.712.712,0,0,1,.245.184.692.692,0,0,1,.142.268.678.678,0,0,1,.012.3L60.41,13.47a.692.692,0,0,1-.245.409.724.724,0,0,1-.456.162H46.771" transform="translate(-41.703 -2.793)" fill="none" stroke="#333" stroke-linecap="round" stroke-linejoin="round" stroke-width="1.2"/>
    </g>
    <circle id="Ellipse_487" data-name="Ellipse 487" cx="7.5" cy="7.5" r="7.5" transform="translate(11.441)" fill="#39b54a"/>
    <path id="Path_25934" data-name="Path 25934" d="M6.786-4.653A6.777,6.777,0,0,1,6.027-1.06,2.563,2.563,0,0,1,3.707.127,2.541,2.541,0,0,1,1.428-1.089,6.643,6.643,0,0,1,.647-4.653a6.775,6.775,0,0,1,.755-3.6,2.551,2.551,0,0,1,2.3-1.174A2.555,2.555,0,0,1,6-8.2,6.614,6.614,0,0,1,6.786-4.653Zm-5.072,0A6.8,6.8,0,0,0,2.19-1.7a1.592,1.592,0,0,0,1.517.924,1.593,1.593,0,0,0,1.527-.936,6.849,6.849,0,0,0,.473-2.936,6.8,6.8,0,0,0-.473-2.929,1.594,1.594,0,0,0-1.527-.93,1.593,1.593,0,0,0-1.517.917A6.751,6.751,0,0,0,1.714-4.653Z" transform="translate(15.441 12)" fill="#fff"/>
  </g>
</svg>
