<svg xmlns="http://www.w3.org/2000/svg" width="17.037" height="16.795" viewBox="0 0 17.037 16.795">
  <g id="Group_8331" data-name="Group 8331" transform="translate(0.51 0.502)">
    <path id="Path_2273" data-name="Path 2273" d="M182.459,116.411a.387.387,0,0,0-.04.133.319.319,0,0,0,.637.053.651.651,0,0,1,.013-.146v-.146a3.5,3.5,0,0,0-.186-1.114,3.307,3.307,0,0,0-2.254-2.082,3.518,3.518,0,0,0-.835-.106,2.245,2.245,0,0,0-.292.013l-.279.04a.31.31,0,1,0,.106.61,1.307,1.307,0,0,1,.225-.027h.04c.066,0,.133-.013.2-.013a2.624,2.624,0,0,1,1.883.782,2.672,2.672,0,0,1,.782,1.857v.027Q182.459,116.371,182.459,116.411Z" transform="translate(-171.472 -108.76)" fill="#fff"/>
    <path id="Path_2274" data-name="Path 2274" d="M174.928,65.267a.319.319,0,1,0,.637.053c.013-.146.013-.292.013-.438a5.942,5.942,0,0,0-.066-.849,5.087,5.087,0,0,0-4.6-4.217c-.133-.013-.278-.013-.411-.013s-.292,0-.438.013-.292.027-.438.053a.31.31,0,1,0,.106.61l.265-.04c.04,0,.08-.013.119-.013.133-.013.265-.013.385-.013a4.57,4.57,0,0,1,1.286.186,4.408,4.408,0,0,1,1.87,1.114,4.555,4.555,0,0,1,.995,1.5,4.482,4.482,0,0,1,.318,1.644v.133A1.085,1.085,0,0,0,174.928,65.267Z" transform="translate(-162.217 -56.985)" fill="#fff"/>
    <path id="Path_2275" data-name="Path 2275" d="M165.71,7.032A6.885,6.885,0,0,0,160.817,5c-.2,0-.4.013-.6.027a4.6,4.6,0,0,0-.6.08.31.31,0,0,0,.106.61l.265-.04a1.979,1.979,0,0,1,.278-.027c.186-.013.358-.027.544-.027a6.248,6.248,0,0,1,6.259,6.259v.292c0,.08-.013.159-.013.252a.319.319,0,0,0,.637.053c.013-.2.027-.4.027-.584A6.866,6.866,0,0,0,165.71,7.032Z" transform="translate(-152.548 -4.002)" fill="#fff"/>
    <path id="Path_2276" data-name="Path 2276" d="M15.624,31.03l-2.788-1.543c-.929-.52-.961-.179-1.937.893-.236.26-.677.942-1.2.812a11.431,11.431,0,0,1-3.78-2.664,9.1,9.1,0,0,1-1.685-2.616C4.2,25.068,6,24.645,5.418,23.037L4.173,20.162C3.008,17.4-.252,21.819.015,23.882c.693,5.085,9.34,13.3,14.159,10.592C15.246,33.856,16.695,31.7,15.624,31.03Z" transform="translate(0 -19.279)" fill="none" stroke="#fff" stroke-width="1"/>
  </g>
</svg>
