<svg xmlns="http://www.w3.org/2000/svg" width="17.27" height="17.218" viewBox="0 0 17.27 17.218">
  <g id="Group_8332" data-name="Group 8332" transform="translate(0.767 0.501)">
    <path id="Path_2459" data-name="Path 2459" d="M0,16l1.376-4.128a7.861,7.861,0,1,1,3.1,2.949Z" transform="translate(0 -0.003)" fill="none" stroke="#fff" stroke-width="1"/>
    <path id="Path_2460" data-name="Path 2460" d="M20.971,17.037A5.19,5.19,0,0,0,19.42,15.7c-.276-.157-.607-.175-.767.106a6.317,6.317,0,0,1-.5.547.926.926,0,0,1-1.317-.131l-1-1-1-1a.926.926,0,0,1-.131-1.318,6.317,6.317,0,0,1,.547-.5c.281-.157.263-.49.106-.767a5.191,5.191,0,0,0-1.34-1.551.685.685,0,0,0-.8.121l-.442.442c-1.4,1.4-.711,2.984.69,4.386l1.281,1.281L16.022,17.6c1.4,1.4,2.984,2.092,4.386.69l.442-.442A.686.686,0,0,0,20.971,17.037Z" transform="translate(-8.21 -6.844)" fill="none" stroke="#fff" stroke-width="1"/>
  </g>
</svg>
