<svg xmlns="http://www.w3.org/2000/svg" width="22.065" height="16" viewBox="0 0 22.065 16">
  <path id="mail" d="M36.779,82.7H19.33a2.311,2.311,0,0,0-2.308,2.308V96.392A2.311,2.311,0,0,0,19.33,98.7H36.779a2.311,2.311,0,0,0,2.308-2.308V85.008A2.311,2.311,0,0,0,36.779,82.7Zm-4.1,8,5.489-4.308v9.636ZM19.33,83.623H36.779a1.386,1.386,0,0,1,1.385,1.385v.207l-8.882,6.971a1.845,1.845,0,0,1-2.273,0l-9.063-6.971v-.206A1.386,1.386,0,0,1,19.33,83.623Zm4.267,7.1-5.652,5.318V86.378Zm13.182,7.051H19.33a1.385,1.385,0,0,1-1.179-.659L24.339,91.3l2.1,1.618a2.767,2.767,0,0,0,3.408,0l2.092-1.642,6.018,5.841A1.385,1.385,0,0,1,36.779,97.777Z" transform="translate(-17.022 -82.7)" fill="#fff"/>
</svg>
