<svg xmlns="http://www.w3.org/2000/svg" width="814.292" height="879.73" viewBox="0 0 814.292 879.73">
  <g id="OBJECTS" transform="translate(-104.284 245.426)">
    <g id="Group_47537" data-name="Group 47537" transform="translate(104.284 -245.426)">
      <ellipse id="Ellipse_1545" data-name="Ellipse 1545" cx="270.466" cy="41.105" rx="270.466" ry="41.105" transform="translate(0 797.519)" fill="#f1a501"/>
      <path id="Path_37217" data-name="Path 37217" d="M739.4,0,146.1,836.942l254.1,10.13H674.9L954.016,0Z" transform="translate(-139.724)" fill="#f1a501" opacity="0.03"/>
      <g id="Group_47536" data-name="Group 47536" transform="translate(405.245 143.494)">
        <g id="Group_47535" data-name="Group 47535">
          <path id="Path_37218" data-name="Path 37218" d="M291,158.719s13.787,5.212,19.175,16.987-.6,41.291,4.592,53.181,6.786,41.431-8.984,45.423-43.513-29.142-43.513-29.142Z" transform="translate(-185.518 -156.114)" fill="#26382d"/>
          <path id="Path_37219" data-name="Path 37219" d="M296.275,265.429c4.877-10.775,3.04-28.095-.645-36.542-5.19-11.89.8-41.4-4.592-53.181s-19.175-16.987-19.175-16.987l-.866,2.6c6.065,4.129,17.1,12.4,18.578,18.922,2.057,9.051,3.654,34.2,3.922,38.991s3.992,26.479,3.459,34.795C296.671,258.473,296.434,262.551,296.275,265.429Z" transform="translate(-166.378 -156.114)" fill="#fff6ac" opacity="0.52"/>
          <path id="Path_37220" data-name="Path 37220" d="M315.194,254.989c-3.612,3.491-6.48,1.364-6.48,1.364s3.459-15.016,0-22.087-.932-43.031-1.776-51.312S300,163.689,300,163.689l-25.888,34.967-11.836,35.609s27.746,33.134,43.513,29.142C310.19,262.293,313.2,259.147,315.194,254.989Z" transform="translate(-185.518 -145.211)" fill="#15231a"/>
          <path id="Path_37221" data-name="Path 37221" d="M279.01,362.013s.46,15.968-.6,21.423-1.788,9.581.7,11.976,15.4,9.316,22.052,9.447,7.716-3.459,7.716-3.459S296.5,392.58,296.1,386.611s2-28.989,2-28.989Z" transform="translate(-152.281 280.211)" fill="#edb091"/>
          <path id="Path_37222" data-name="Path 37222" d="M299.656,391c-3.663-3.107-8.616-7.968-8.869-11.708-.214-3.235.39-11.465.987-18.338-3.385,2.689-11.251,8.872-11.832,14.314-.613,5.739,1.894,15.186,2.727,18.114.482.23.968.457,1.463.68Z" transform="translate(-146.966 287.527)" fill="#f9c4a6"/>
          <path id="Path_37223" data-name="Path 37223" d="M268.045,280.175V269.6l-14.272-3.226-1.463,13.04-.211.406a15.975,15.975,0,0,0-.674,13.193l4.078,10.354s.8,23.687.8,24.087,3.858,4.656,3.858,4.656l4.79-1.862,11.976-28.612Z" transform="translate(-211.75 80.04)" fill="#f9c4a6"/>
          <path id="Path_37224" data-name="Path 37224" d="M258.994,278.741l9.051-2.041v-7.1l-14.272-3.226-1.463,13.04-.211.406a15.975,15.975,0,0,0-.674,13.193l4.078,10.354s.8,23.687.8,24.087,3.858,4.656,3.858,4.656l3.685-1.434,4.2-16.863-4.423,14.668h-1.466l2.5-14.969-3.992,14.969-1.5-1.7s1.6-24.55.4-27.146c-.894-1.935-2.344-12.26-3.021-17.38A3.175,3.175,0,0,1,258.994,278.741Z" transform="translate(-211.75 80.04)" fill="#edb091"/>
          <path id="Path_37225" data-name="Path 37225" d="M323.432,261.711l-9.076-5.432-10.1,10.587,10.437,7.955.243.39a15.968,15.968,0,0,0,10.973,7.355l10.977,1.817s20.733,11.481,21.075,11.689,5.978-.92,5.978-.92l.862-5.065-18.4-24.974Z" transform="translate(-93.424 57.899)" fill="#f9c4a6"/>
          <path id="Path_37226" data-name="Path 37226" d="M333.464,261.52l-22.972-3.4-.339-.2.31.929s10.913,2.213,12.641,6.5,1.332,8.275,4.26,6.547,6.387-6.547,6.387-6.547l12.3,13.263Z" transform="translate(-80.484 61.493)" fill="#fff6ac" opacity="0.52"/>
          <path id="Path_37227" data-name="Path 37227" d="M317.549,268.741l2.9-8.815-6.094-3.647-10.1,10.587,10.437,7.955.243.39a15.968,15.968,0,0,0,10.973,7.355l10.977,1.817s20.733,11.481,21.075,11.689,5.978-.92,5.978-.92l.661-3.9-12.312-12.267L362.6,290.323l-.75,1.255-11.564-9.83,10.795,11.114-2.226.412s-20.245-13.982-23.084-14.285c-2.12-.23-11.727-4.289-16.463-6.336A3.176,3.176,0,0,1,317.549,268.741Z" transform="translate(-93.424 57.899)" fill="#edb091"/>
          <path id="Path_37228" data-name="Path 37228" d="M248.09,355.027s-5.024,21.889-6.023,28.075-4.589,26.549-1.6,28.545,10.245,3.938,14.637.147,4.254-22.6,5.324-29.289c1-6.253,6.854-23.687,6.854-23.687Z" transform="translate(-235.903 274.519)" fill="#edb091"/>
          <path id="Path_37229" data-name="Path 37229" d="M255.38,373.077a129.825,129.825,0,0,1,3.666-13.752c-4.292,2.245-13.145,7.262-16.007,11.839-3.829,6.119,1.226,23.317,1.226,23.317l8.93-.195C254.489,387.119,254.677,377.484,255.38,373.077Z" transform="translate(-230.852 283.947)" fill="#f9c4a6"/>
          <path id="Path_37230" data-name="Path 37230" d="M264.81,219.393l3.471-36.931,20.6-.8s8.942,39.921,14.266,47.9Z" transform="translate(-179.951 -105.782)" fill="#f9c4a6"/>
          <path id="Path_37231" data-name="Path 37231" d="M283.978,200.147c1.124-2.226,4.707-4.941,7.968-7.083-.482-1.942-.923-3.749-1.309-5.369l-22.48-5.359-3.347,35.581,15.681,4.161,1.664.026S281.756,204.538,283.978,200.147Z" transform="translate(-179.951 -104.306)" fill="#edb091"/>
          <path id="Path_37232" data-name="Path 37232" d="M293.471,235.761s23.279-9.3,24.2-13.519-6.684-20.12-6.684-20.12l2.708-5.8a2.658,2.658,0,0,0-.163-3.57L299.143,179.98s-2.823-15.789-8.31-17.029-19.9,3.717-23.556,17.849.5,28.51.5,28.51-6.448,6.2-3.931,12.893S280.7,238.66,293.471,235.761Z" transform="translate(-183.343 -147.23)" fill="#f9c4a6"/>
          <path id="Path_37233" data-name="Path 37233" d="M292.7,194.2a2.658,2.658,0,0,0-.163-3.571L278.15,177.865s-1.661-9.236-4.9-14.132l-.418,5.777s.268,7.85,2.929,11.178,13.04,11.976,13.04,11.976v5.506s2.989,14.585,3.226,17.249a51.346,51.346,0,0,0,2.124,7.48c1.412-1.038,2.354-1.993,2.523-2.772.913-4.216-6.684-20.12-6.684-20.12Z" transform="translate(-162.351 -145.115)" fill="#fff6ac" opacity="0.52"/>
          <path id="Path_37234" data-name="Path 37234" d="M401.58,266.059,347.224,407.292S326,442.773,319.609,455.015s-54.222,130.838-54.222,130.838l-24.7-7.259s35.28-134.223,45.391-145.934,13.308-16.5,13.308-16.5l27.679-116.038s-6.387-31.937-1.067-42.581S401.58,266.059,401.58,266.059Z" transform="translate(-232.875 53.606)" fill="#344676"/>
          <path id="Path_37235" data-name="Path 37235" d="M334.827,255,317.793,430.52l-3.724,11.711L308.212,589.8H283.2s-11.178-132.722-8.518-146.56,8.051-45.51,8.051-45.51l-8.051-83.648Z" transform="translate(-159.201 55.087)" fill="#344676"/>
          <path id="Path_37236" data-name="Path 37236" d="M306.606,426.639l3.726-11.71L325.162,262.1l-17.93,21.213-9.941,8.516,3.46,113.894,5.589,6.666-9.049,22.356L277.67,574.206h23.082Z" transform="translate(-151.74 70.678)" fill="#3c568e"/>
          <path id="Path_37237" data-name="Path 37237" d="M295.472,422.786,282.531,574.207h7.556l5.857-147.566,3.724-11.711L314.5,262.1s-13.171,77.379-15.566,116.5S295.472,422.786,295.472,422.786Z" transform="translate(-141.077 70.678)" fill="#fff6ac" opacity="0.52"/>
          <path id="Path_37238" data-name="Path 37238" d="M353.858,292.372,343.631,308.3l-55.452-40.616,10.343-27.832Z" transform="translate(-128.687 21.872)" fill="#eaa94e"/>
          <path id="Path_37239" data-name="Path 37239" d="M341.887,304.962l8.08-12.589-55.333-52.517-4.682,12.6C297.888,259.337,341.884,304.962,341.887,304.962Z" transform="translate(-124.798 21.873)" fill="#f7bb72"/>
          <path id="Path_37240" data-name="Path 37240" d="M291.164,242.038l1.736,2.67,50.171,47.6,3.539,1.159.7-1.092-55.336-52.517Z" transform="translate(-122.14 21.872)" fill="#fff6ac" opacity="0.52"/>
          <path id="Path_37241" data-name="Path 37241" d="M271,195.629s17.9-4.851,30.072-2.057,53.3,42.514,54.893,46.905-8.984,39.122-6.189,50.7S370,387.385,370.265,404.42c0,0-54.557,12.107-97.142,0,0,0,13.308-93.948,7.984-110.181s-19.884-49.051-19.96-61.478S271,195.629,271,195.629Z" transform="translate(-187.986 -81.561)" fill="#eaa94e"/>
          <path id="Path_37242" data-name="Path 37242" d="M313.864,265.627l14.371,3.593s-7.186,19.162-7.186,27.146c0,6.078-5.777,78.928-8.537,113.42A274.189,274.189,0,0,0,363.5,404.42c-.265-17.035-17.7-101.667-20.494-113.244s7.786-46.308,6.189-50.7S306.48,196.366,294.3,193.572s-30.071,2.057-30.071,2.057S299.492,262.034,313.864,265.627Z" transform="translate(-181.221 -81.561)" fill="#f7bb72"/>
          <g id="Group_47532" data-name="Group 47532" transform="translate(99.969 111.148)" opacity="0.52">
            <path id="Path_37243" data-name="Path 37243" d="M337.275,246.123c.421-2.762.581-4.794.271-5.65-1.6-4.391-42.715-44.111-54.893-46.905a46.352,46.352,0,0,0-13.113-.706c4.826,3.877,12.353,9.514,18.766,12.481,10.379,4.8,17.83,26.626,26.613,38.867C320.244,251.635,330.227,249.192,337.275,246.123Z" transform="translate(-269.541 -192.706)" fill="#fff6ac"/>
            <path id="Path_37244" data-name="Path 37244" d="M290.644,229.873a31.545,31.545,0,0,1-.268-9.223c-1.785,7.387-2.769,14.324-2.025,19.293,1.919,12.8,9.674,73.339,13.691,104.857,5.714-.936,9.1-1.686,9.1-1.686C310.873,326.082,293.439,241.45,290.644,229.873Z" transform="translate(-228.828 -131.407)" fill="#fff6ac" opacity="0.52"/>
          </g>
          <path id="Path_37245" data-name="Path 37245" d="M303.317,183.995s17.766,2,22.557-2.2-.067-22.755-22.09-23.751c-15.764-.715-40.064.3-49.767,26.214-11.312,30.206,16.965,51.1,13.573,68.133s-14.109,36.194-5.359,42.779,23.323,8.783,22.924,8.185,3.149-24.007,7.7-27.347,14.451-28.743,12.656-45.708-5.391-21.758-3.395-29.343S303.317,183.995,303.317,183.995Z" transform="translate(-209.522 -157.903)" fill="#26382d"/>
          <path id="Path_37246" data-name="Path 37246" d="M309.647,183.892a11.621,11.621,0,0,0,5.464-2.1c4.79-4.19-.067-22.755-22.09-23.751-10.74-.489-25.434-.156-36.785,8.291.84-.227,31.483-8.441,43.424-2.4C311.767,170.054,316.692,178.836,309.647,183.892Z" transform="translate(-198.759 -157.903)" fill="#fff6ac" opacity="0.52"/>
          <path id="Path_37247" data-name="Path 37247" d="M293.561,261.581c-7.729-10.6-1.239-42.951-5.289-51.051-4.193-8.383,0-18.961-2-24.15s-4.193.2-19.363-10.98A31.562,31.562,0,0,1,257,164.174a45.229,45.229,0,0,0-2.986,6.33c-11.312,30.206,16.965,51.1,13.573,68.133s-14.109,36.194-5.359,42.779,23.323,8.783,22.924,8.185,3.149-24.007,7.7-27.347A5.858,5.858,0,0,0,293.561,261.581Z" transform="translate(-209.522 -144.147)" fill="#15231a"/>
          <path id="Path_37248" data-name="Path 37248" d="M312.143,195.211h0a15.318,15.318,0,0,0-20.922,7.828L251.911,312.989l-1.6,120.561h19.7l11.443-116.837L319.339,215.2A15.318,15.318,0,0,0,312.143,195.211Z" transform="translate(-211.75 -79.553)" fill="#f7bb72"/>
          <g id="Group_47533" data-name="Group 47533" transform="translate(49.927 114.091)">
            <path id="Path_37249" data-name="Path 37249" d="M262.2,349l11.444-116.835L253.872,349Z" transform="translate(-253.872 -109.093)" fill="#fff6ac" opacity="0.52"/>
            <path id="Path_37250" data-name="Path 37250" d="M290.1,215.187a15.272,15.272,0,0,0-21.353-19.622c2.3,1.268,5.3,4.053,7.812,10.233,3.586,8.808-7.24,56.71-12.922,80.292Z" transform="translate(-232.442 -193.627)" fill="#fff6ac" opacity="0.52"/>
          </g>
          <path id="Path_37251" data-name="Path 37251" d="M251.911,288.129l-1.6,120.561h7.052c1.629-28.721,5.669-100.549,5.458-101.4-.268-1.067-2.4-18.568-2.4-18.568l21.219-83.77Z" transform="translate(-211.75 -54.692)" fill="#eaa94e"/>
          <path id="Path_37252" data-name="Path 37252" d="M392.281,263.115c-8.709,2.216-36.749,9.562-39.218,12.928-2.929,3.992-31.671,110.181-30.075,113.375s15.809,3.194,15.809,3.194-23.847,28.743-29.008,32.735c-4.085,3.159-48.767,94.813-67.734,135.245l20.324,5.972S310.214,447.97,316.6,435.726,344.217,388,344.217,388Z" transform="translate(-229.867 72.895)" fill="#3c568e"/>
          <g id="Group_47534" data-name="Group 47534" transform="translate(28.964 338.837)" opacity="0.52">
            <path id="Path_37253" data-name="Path 37253" d="M319.985,264s-43.705,89.787-44.424,105.924c-.236,5.314-.987,11.788-1.881,18.086.735-1.233,1.163-1.948,1.163-1.948l44.088-114.556Z" transform="translate(-189.457 -264)" fill="#fff6ac"/>
            <path id="Path_37254" data-name="Path 37254" d="M247.308,447.468l3.548,1.044s47.835-118.6,54.222-130.838c.125-.233.262-.5.4-.744a77.672,77.672,0,0,0-8.051,10.338C290,339.046,258.451,419.006,247.308,447.468Z" transform="translate(-247.308 -147.89)" fill="#fff6ac"/>
          </g>
          <path id="Path_37255" data-name="Path 37255" d="M244.177,364.253s.741,13.615,6.547,14.614,10.846-6.419,11.631-12.944c0,0,.623,28.784.878,33.335.418,7.454-2.159,16.425-12.139,17.025s-12.414-9.441-12.813-14.429S240.344,373.527,244.177,364.253Z" transform="translate(-238.239 294.757)" fill="#344676"/>
          <path id="Path_37256" data-name="Path 37256" d="M281.206,367.233s12,8.559,16.262,10.025,7.033-3.7,7.033-3.7a70.36,70.36,0,0,0,26.9,13.88c10.2,2.571,12.573,8.856,12.308,9.923s-28.471.179-33.929.313-19.232-6.972-22.56-6.173-3.858,4.925-3.858,4.925h-7.32S274.237,376.15,281.206,367.233Z" transform="translate(-155.774 301.295)" fill="#344676"/>
          <path id="Path_37257" data-name="Path 37257" d="M307.786,262.488s7.614,9.686,11.1,11.155,13.809,8.24,14.946,8.313,1.67-1.546.3-3.235-5.461-6.033-5.461-6.033l-1.974-3.679Z" transform="translate(-85.676 71.52)" fill="#edb091"/>
          <path id="Path_37258" data-name="Path 37258" d="M257.225,408.523a21.222,21.222,0,0,0,1.833-10.411c-.255-4.551-.878-33.335-.878-33.335-.786,6.525-5.825,13.94-11.631,12.944a4.622,4.622,0,0,1-2.664-1.622c-.952,2.446-3.788,10.239-2.012,11.919,2.114,2,7.7,2,7.7,2s-5.525,2.194-7.7,2.194-3.178,13.672,2.411,16.367C247.718,410.228,252.694,410.027,257.225,408.523Z" transform="translate(-234.064 295.905)" fill="#3c568e"/>
          <path id="Path_37259" data-name="Path 37259" d="M307.17,385.707c3.753,3.037,17.243,6.86,22.56,5.959-.881-2.28-4.059-6.56-12.047-8.575a70.359,70.359,0,0,1-26.9-13.88s-2.775,5.167-7.033,3.7a15.791,15.791,0,0,1-1.667-.728,33.488,33.488,0,0,0,8.984,5.467C299.518,381.316,302.977,382.312,307.17,385.707Z" transform="translate(-142.057 305.636)" fill="#3c568e"/>
        </g>
        <path id="Path_37264" data-name="Path 37264" d="M271.257,173.459c.166-.437,13.777-4.525,14.707.664s-2.561,9.45-6.739,7.984S268.526,180.645,271.257,173.459Z" transform="translate(-167.229 -128.04)" fill="#fff6ac" opacity="0.52"/>
      </g>
    </g>
  </g>
</svg>
