<svg xmlns="http://www.w3.org/2000/svg" width="20.6" height="20.6" viewBox="0 0 20.6 20.6">
  <g id="path7" transform="translate(-0.7 -1.7)" fill="#333" stroke-linecap="round">
    <path d="M 11 22.15000152587891 C 8.288200378417969 22.15000152587891 5.738870143890381 21.09413146972656 3.821630001068115 19.17690086364746 C 1.905349969863892 17.26061058044434 0.8500000238418579 14.71180057525635 0.8500000238418579 12.00000095367432 C 0.8500000238418579 6.403270721435547 5.40326976776123 1.850000977516174 11 1.850000977516174 C 16.59672927856445 1.850000977516174 21.14999961853027 6.403270721435547 21.14999961853027 12.00000095367432 C 21.14999961853027 17.59673118591309 16.59672927856445 22.15000152587891 11 22.15000152587891 Z M 5.162304401397705 18.98502349853516 C 6.798618793487549 20.35690689086914 8.865838050842285 21.11069107055664 11 21.11069107055664 C 13.08590221405029 21.11069107055664 15.11748123168945 20.38580703735352 16.73737335205078 19.06644439697266 C 15.35509204864502 17.29055976867676 13.28872203826904 16.25339508056641 11.04459762573242 16.21484756469727 C 11.03661155700684 16.21547317504883 11.02890110015869 16.21689033508301 11.02118968963623 16.21809005737305 C 11.00107955932617 16.22122001647949 10.97605037689209 16.22512054443359 10.94676971435547 16.22512054443359 L 10.91275978088379 16.22512054443359 C 10.88304996490479 16.22512054443359 10.85638046264648 16.22141075134277 10.83495998382568 16.21842002868652 C 10.82503223419189 16.21703910827637 10.81511116027832 16.21547508239746 10.80501842498779 16.2148265838623 C 8.593518257141113 16.24900817871094 6.545309543609619 17.25650596618652 5.162304401397705 18.98502349853516 Z M 13.26244163513184 15.50484180450439 C 14.92262935638428 15.98821544647217 16.41411781311035 16.99282264709473 17.50653076171875 18.36689376831055 C 19.18689727783203 16.65122413635254 20.11079216003418 14.39805889129639 20.11216926574707 12.00287055969238 C 20.11216926574707 6.979310989379883 16.0251293182373 2.892271041870117 11.00148010253906 2.892271041870117 C 5.977829933166504 2.892271041870117 1.890799999237061 6.979310989379883 1.890799999237061 12.00296115875244 C 1.890799999237061 14.35624313354492 2.780723333358765 16.57835578918457 4.400415420532227 18.27938842773438 C 5.487725257873535 16.94822311401367 6.959555149078369 15.97344589233398 8.589633941650391 15.50137710571289 C 7.424633979797363 14.72196674346924 6.714260101318359 13.42114543914795 6.714260101318359 12.02809047698975 C 6.714260101318359 9.69347095489502 8.597700119018555 7.794110774993896 10.91275978088379 7.794110774993896 C 13.247389793396 7.794110774993896 15.14675045013428 9.67755126953125 15.14675045013428 11.99261093139648 C 15.14675045013428 13.40764808654785 14.43298149108887 14.7230863571167 13.26244163513184 15.50484180450439 Z M 10.91720008850098 15.16805076599121 C 10.94861030578613 15.16805076599121 10.97743988037109 15.17089080810547 11.00286960601807 15.17340087890625 C 11.01654052734375 15.17475032806396 11.03011322021484 15.17617130279541 11.0436840057373 15.17683696746826 C 12.7621545791626 15.12425422668457 14.10743045806885 13.74147510528564 14.10743045806885 12.02662086486816 C 14.10743045806885 10.26507091522217 12.69023036956787 8.831951141357422 10.94824981689453 8.831951141357422 C 9.186699867248535 8.831951141357422 7.753580093383789 10.2491512298584 7.753580093383789 11.99113082885742 C 7.753580093383789 13.71906471252441 9.094278335571289 15.11658000946045 10.80679702758789 15.17533493041992 C 10.81830310821533 15.17471790313721 10.82965278625488 15.17360782623291 10.84097957611084 15.17255115509033 C 10.86355972290039 15.17044067382812 10.88916015625 15.16805076599121 10.91720008850098 15.16805076599121 Z" stroke="none"/>
    <path d="M 11 2.000001907348633 C 5.486179351806641 2.000001907348633 1 6.486171722412109 1 12.00000095367432 C 1 14.67189121246338 2.039480209350586 17.1826114654541 3.927690505981445 19.07083129882812 C 5.817390441894531 20.96052169799805 8.328109741210938 22 11 22 C 16.51383018493652 22 21 17.51383209228516 21 12.00000095367432 C 21 6.486171722412109 16.51383018493652 2.000001907348633 11 2.000001907348633 M 17.49267959594727 18.59323120117188 C 16.33342933654785 17.07319068908691 14.70989036560059 16.0056209564209 12.8852596282959 15.5590705871582 C 14.13617992401123 14.8670711517334 14.99674987792969 13.54369068145752 14.99674987792969 11.99261093139648 C 14.99674987792969 9.759870529174805 13.17951011657715 7.944110870361328 10.91275978088379 7.944110870361328 C 8.68002986907959 7.944110870361328 6.864259719848633 9.761350631713867 6.864259719848633 12.02809047698975 C 6.864259719848633 13.55109119415283 7.720390319824219 14.86411094665527 8.966879844665527 15.55611133575439 C 7.173299789428711 15.99231052398682 5.567499160766602 17.03031158447266 4.411209106445312 18.50599098205566 C 2.690080642700195 16.76268005371094 1.740789413452148 14.45601081848145 1.740789413452148 12.00296115875244 C 1.740789413452148 6.895750045776367 5.895759582519531 2.742271423339844 11.00148010253906 2.742271423339844 C 16.10720062255859 2.742271423339844 20.26215934753418 6.89723014831543 20.26215934753418 12.00296115875244 C 20.26069068908691 14.5787410736084 19.19902992248535 16.91202163696289 17.49267959594727 18.59323120117188 M 11.04288005828857 15.32693099975586 C 11.00148010253906 15.3254508972168 10.96008014678955 15.3180513381958 10.91720008850098 15.3180513381958 C 10.88022994995117 15.3180513381958 10.84473991394043 15.32397079467773 10.80778026580811 15.3254508972168 C 9.031940460205078 15.26778125762939 7.603580474853516 13.81428050994873 7.603580474853516 11.99113082885742 C 7.603580474853516 10.16649055480957 9.088129997253418 8.681950569152832 10.94824981689453 8.681950569152832 C 12.7728796005249 8.681950569152832 14.25743007659912 10.16649055480957 14.25743007659912 12.02662086486816 C 14.25743007659912 13.81872081756592 12.82314968109131 15.27517127990723 11.04288005828857 15.32693099975586 M 10.94676971435547 16.07512092590332 C 10.97929954528809 16.07512092590332 11.00887012481689 16.06624031066895 11.04139995574951 16.06476211547852 C 13.37765026092529 16.10321044921875 15.54680061340332 17.22402191162109 16.94411087036133 19.09005165100098 C 15.33535003662109 20.44300079345703 13.26231002807617 21.26069068908691 11 21.26069068908691 C 8.755430221557617 21.26069068908691 6.636549949645996 20.46074104309082 4.955350875854492 19.00577163696289 L 4.955339431762695 19.00577163696289 C 6.354129791259766 17.18852996826172 8.508500099182129 16.09877014160156 10.80778026580811 16.06476211547852 C 10.84327030181885 16.06624031066895 10.87726974487305 16.07512092590332 10.91275978088379 16.07512092590332 L 10.94676971435547 16.07512092590332 M 11 1.700000762939453 C 16.67943954467773 1.700000762939453 21.29999923706055 6.320560455322266 21.29999923706055 12.00000095367432 C 21.29999923706055 17.67944145202637 16.67943954467773 22.30000114440918 11 22.30000114440918 C 8.248129844665527 22.30000114440918 5.661130905151367 21.22853088378906 3.715560913085938 19.28296089172363 C 1.770950317382812 17.33834075927734 0.7000007629394531 14.75187110900879 0.7000007629394531 12.00000095367432 C 0.7000007629394531 6.320560455322266 5.320560455322266 1.700000762939453 11 1.700000762939453 Z M 17.51607894897461 18.14058494567871 C 19.09468269348145 16.46893310546875 19.96084403991699 14.30223560333252 19.96216011047363 12.00279140472412 C 19.96216011047363 7.062021255493164 15.94242000579834 3.042270660400391 11.00148010253906 3.042270660400391 C 6.060540199279785 3.042270660400391 2.040790557861328 7.062021255493164 2.040790557861328 12.00296115875244 C 2.040790557861328 14.26104831695557 2.874006271362305 16.39645004272461 4.393985748291016 18.05285263061523 C 5.422439575195312 16.84366226196289 6.768034934997559 15.93776988983154 8.257720947265625 15.44708442687988 C 7.199531555175781 14.62812519073486 6.56425952911377 13.36953830718994 6.56425952911377 12.02809047698975 C 6.56425952911377 9.610760688781738 8.514989852905273 7.644111633300781 10.91275978088379 7.644111633300781 C 13.33010005950928 7.644111633300781 15.29675006866455 9.594841003417969 15.29675006866455 11.99261093139648 C 15.29675006866455 13.35500526428223 14.65788459777832 14.62823486328125 13.59413051605225 15.45092964172363 C 15.11423015594482 15.95402431488037 16.48038101196289 16.88928413391113 17.51607894897461 18.14058494567871 Z M 11.04561710357666 15.02670574188232 C 12.67938613891602 14.97328281402588 13.95742988586426 13.65765953063965 13.95742988586426 12.02662086486816 C 13.95742988586426 10.34778118133545 12.60752010345459 8.981950759887695 10.94824981689453 8.981950759887695 C 9.269410133361816 8.981950759887695 7.903579711914062 10.33186054229736 7.903579711914062 11.99113082885742 C 7.903579711914062 13.63541507720947 9.176898956298828 14.96570110321045 10.80488395690918 15.02517414093018 C 10.81231784820557 15.02464199066162 10.81968116760254 15.02388381958008 10.82703971862793 15.02320098876953 C 10.85159969329834 15.02090072631836 10.88216972351074 15.01805114746094 10.91720008850098 15.01805114746094 C 10.95598030090332 15.01805114746094 10.99015045166016 15.0214204788208 11.0175895690918 15.02413082122803 C 11.02697849273682 15.02504920959473 11.03630065917969 15.02608776092529 11.04561710357666 15.02670574188232 Z M 10.94676971435547 16.3751220703125 L 10.91275978088379 16.3751220703125 C 10.87263965606689 16.3751220703125 10.83887958526611 16.37042045593262 10.81424045562744 16.36698150634766 C 10.80934810638428 16.36630058288574 10.80447196960449 16.3654899597168 10.79954624176025 16.36492919921875 C 8.685364723205566 16.39981079101562 6.724117279052734 17.3428955078125 5.372905731201172 18.9642505645752 C 6.963665008544922 20.25378799438477 8.950465202331543 20.96069145202637 11 20.96069145202637 C 13.00198554992676 20.96069145202637 14.95334053039551 20.28153038024902 16.5269947052002 19.04275131225586 C 15.17611122131348 17.37628364562988 13.197265625 16.40483856201172 11.05203914642334 16.36499404907227 C 11.04993534088135 16.3653678894043 11.04712677001953 16.36585235595703 11.04430961608887 16.36629104614258 C 11.02175998687744 16.36981201171875 10.98768043518066 16.3751220703125 10.94676971435547 16.3751220703125 Z" stroke="none" fill="#333"/>
  </g>
</svg>
